<?xml version="1.0" encoding="UTF-8" standalone="no"?>
<svg viewBox="0 0 515.34 673.26" version="1.1" id="hyprviz"
     xmlns="http://www.w3.org/2000/svg">

  <defs>
    <linearGradient id="dropGrad" x1="8.93" y1="572.38" x2="572.68" y2="102.08" gradientUnits="userSpaceOnUse">
      <stop offset="0" stop-color="#292c3c"/>
      <stop offset="1" stop-color="#414559"/>
    </linearGradient>
  </defs>

  <path d="m288.53,0c1.99,2.11,3.26,3.13,4.14,4.42,15.97,23.63,31.7,47.44,47.91,70.91,9.33,13.51,19.26,26.61,29.22,39.67,9.63,12.65,19.8,24.88,29.44,37.53,11.15,14.63,22.45,29.18,32.81,44.36,13.27,19.45,26.64,38.94,38.12,59.44,9.76,17.43,17.56,36.05,25.02,54.64,5.28,13.16,8.82,27.06,12.6,40.78,1.75,6.36,2.24,13.07,3.26,19.62,1.26,8.02,3.4,16.04,3.53,24.08.35,20.94,2.17,41.95-1.48,62.8-4.02,22.99-10.75,45-20.76,66.23-10.12,21.45-22.38,41.26-37.39,59.59-13.6,16.61-29.57,30.33-46.84,42.91-12.68,9.23-26.09,17.07-40.36,23.3-12.84,5.6-26.07,10.09-39.69,13.89-30.75,8.56-61.93,10.44-93.33,8.23-18.93-1.33-38.08-3.65-56.11-10.46-14.82-5.6-29.75-11.13-43.92-18.13-11.19-5.52-21.91-12.44-31.73-20.15-12.88-10.11-25.52-20.81-36.67-32.74-9.99-10.68-18.64-22.87-26.4-35.31-8.18-13.13-15.39-27.01-21.58-41.2-6.69-15.32-11.01-31.45-14.53-47.97-5.48-25.71-3.71-51.44-2.59-77.09.64-14.73,4.53-29.47,8.26-43.86,3.93-15.18,8.68-30.26,14.44-44.84,5.77-14.6,12.47-28.96,20.14-42.65,9.63-17.18,20.25-33.85,31.2-50.23,9.94-14.88,20.68-29.24,31.47-43.52,8.69-11.5,18.17-22.41,26.97-33.83,8.9-11.55,17.46-23.36,26.07-35.13,9.11-12.46,18.29-24.87,27.09-37.55,11.16-16.07,21.91-32.43,32.97-48.57,1.58-2.31,3.88-4.14,5.84-6.19.39.22.78.44,1.18.66.08,1.77.23,3.54.23,5.31.01,26.33.15,52.66-.17,78.99-.05,3.86-1.62,8.15-3.72,11.46-8.5,13.45-17.19,26.8-26.38,39.79-8.71,12.31-18.12,24.13-27.22,36.16-7.5,9.91-14.97,19.83-22.52,29.7-5.24,6.85-10.74,13.5-15.86,20.44-7.16,9.72-14.35,19.45-21.03,29.5-8.06,12.12-15.99,24.36-23.23,36.97-5.18,9.02-9.26,18.69-13.59,28.17-2.4,5.26-4.61,10.64-6.36,16.14-3.1,9.76-5.58,19.71-8.68,29.47-8.72,27.42-6.87,55.63-4.92,83.5.99,14.15,6.11,28.15,10.4,41.89,6.01,19.24,16.32,36.3,27.95,52.74,7.94,11.23,16.95,21.38,27.14,30.36,8.39,7.38,17.5,14.17,27.07,19.92,10.89,6.54,22.23,12.77,34.12,17.07,12.69,4.59,26.1,7.99,39.48,9.68,15.93,2.01,32.16,1.58,48.25,2.34,14.94.7,29.43-2.29,43.93-5.14,18.41-3.62,35.23-11.56,51.58-20.26,19.55-10.4,35.98-25.13,50.37-41.73,14.71-16.97,27.06-36.05,34.92-57,8.29-22.1,15.2-44.97,14.15-69.26-.57-13.13.15-26.34-1.06-39.39-.89-9.61-3.62-19.11-6.16-28.5-2.98-11.03-6.03-22.1-10.16-32.73-4.11-10.59-9.36-20.75-14.52-30.9-4.57-8.99-9.32-17.92-14.66-26.46-6.5-10.39-13.38-20.59-20.68-30.43-11.05-14.9-22.74-29.32-33.91-44.12-13.08-17.33-26.13-34.68-38.77-52.33-10.91-15.22-21.31-30.81-31.71-46.39-1.67-2.5-3-5.79-3.03-8.72-.23-28.49-.15-56.98-.13-85.47,0-.95.24-1.91.58-4.44Z"
        fill="url(#dropGrad)"/>

  <g transform="translate(17.67, 165) scale(20)">
    <path d="M18.1125649,13.0304195 C18.1454626,12.7672379 18.1701359,12.5040563 18.1701359,12.2244258 C18.1701359,11.9447953 18.1454626,11.6816137 18.1125649,11.4184321 L19.8479188,10.0614018 C20.0041828,9.93803541 20.045305,9.71597592 19.9466119,9.53503855 L18.3017267,6.68938723 C18.2030336,6.50844986 17.9809741,6.44265446 17.8000367,6.50844986 L15.7521547,7.33089244 C15.3244846,7.00191541 14.8639167,6.73050936 14.3622268,6.52489871 L14.0496986,4.34542588 C14.0250253,4.14803966 13.8523124,4 13.6467017,4 L10.3569314,4 C10.1513208,4 9.97860782,4.14803966 9.95393455,4.34542588 L9.64140637,6.52489871 C9.13971639,6.73050936 8.67914855,7.01013984 8.25147841,7.33089244 L6.20359639,6.50844986 C6.0144346,6.43443003 5.80059953,6.50844986 5.70190642,6.68938723 L4.05702126,9.53503855 C3.95010373,9.71597592 3.99945028,9.93803541 4.15571437,10.0614018 L5.89106821,11.4184321 C5.85817051,11.6816137 5.83349723,11.9530197 5.83349723,12.2244258 C5.83349723,12.4958318 5.85817051,12.7672379 5.89106821,13.0304195 L4.15571437,14.3874498 C3.99945028,14.5108161 3.95832815,14.7328756 4.05702126,14.913813 L5.70190642,17.7594643 C5.80059953,17.9404017 6.02265902,18.0061971 6.20359639,17.9404017 L8.25147841,17.1179591 C8.67914855,17.4469361 9.13971639,17.7183422 9.64140637,17.9239528 L9.95393455,20.1034257 C9.97860782,20.3008119 10.1513208,20.4488516 10.3569314,20.4488516 L13.6467017,20.4488516 C13.8523124,20.4488516 14.0250253,20.3008119 14.0496986,20.1034257 L14.3622268,17.9239528 C14.8639167,17.7183422 15.3244846,17.4387117 15.7521547,17.1179591 L17.8000367,17.9404017 C17.9891985,18.0144215 18.2030336,17.9404017 18.3017267,17.7594643 L19.9466119,14.913813 C20.045305,14.7328756 20.0041828,14.5108161 19.8479188,14.3874498 L18.1125649,13.0304195 L18.1125649,13.0304195 L18.1125649,13.0304195 Z M12.0018166,15.1029748 C10.4145024,15.1029748 9.12326754,13.81174 9.12326754,12.2244258 C9.12326754,10.6371116 10.4145024,9.34587676 12.0018166,9.34587676 C13.5891307,9.34587676 14.8803656,10.6371116 14.8803656,12.2244258 C14.8803656,13.81174 13.5891307,15.1029748 12.0018166,15.1029748 L12.0018166,15.1029748 L12.0018166,15.1029748 Z"
          fill="#00a2f8"/>
  </g>
</svg>
